<svg width="30" height="24" viewBox="0 0 30 24" fill="none" xmlns="http://www.w3.org/2000/svg">
<path d="M6.0572 15.9462C5.5365 16.4669 5.5365 17.3111 6.0572 17.8318C6.5779 18.3525 7.42212 18.3525 7.94282 17.8318L12.4237 13.3509L14.1566 14.7662C14.7012 15.2109 15.4974 15.1564 15.9763 14.6416L20.3371 9.95365L22.0273 11.7565C22.5309 12.2937 23.3747 12.3209 23.9119 11.8173C24.4491 11.3136 24.4764 10.4699 23.9727 9.93265L21.3061 7.0882C21.0534 6.81868 20.7002 6.66607 20.3308 6.66679C19.9613 6.66751 19.6087 6.82148 19.3571 7.09198L14.8752 11.91L13.1767 10.523C12.6465 10.09 11.8746 10.1288 11.3905 10.6129L6.0572 15.9462Z" fill="#04354A"/>
<path fill-rule="evenodd" clip-rule="evenodd" d="M5.66668 0C2.72116 0 0.333344 2.38782 0.333344 5.33334V18.6667C0.333344 21.6122 2.72116 24 5.66668 24H24.3333C27.2789 24 29.6667 21.6122 29.6667 18.6667V5.33333C29.6667 2.38782 27.2789 0 24.3333 0H5.66668ZM3.00001 5.33334C3.00001 3.86058 4.19392 2.66667 5.66668 2.66667H24.3333C25.8061 2.66667 27 3.86057 27 5.33333V18.6667C27 20.1394 25.8061 21.3333 24.3333 21.3333H5.66668C4.19392 21.3333 3.00001 20.1394 3.00001 18.6667V5.33334Z" fill="#04354A"/>
</svg>
