<svg width="208" height="34" viewBox="0 0 208 34" fill="none" xmlns="http://www.w3.org/2000/svg">
<path d="M0.03125 13.2188C0.03125 11.375 0.369792 9.6875 1.04688 8.15625C1.72396 6.625 2.67188 5.3125 3.89062 4.21875C5.11979 3.11458 6.58854 2.26042 8.29688 1.65625C10.0156 1.05208 11.9167 0.75 14 0.75C16.0729 0.75 17.9688 1.05208 19.6875 1.65625C21.4062 2.26042 22.875 3.11458 24.0938 4.21875C25.3229 5.3125 26.276 6.625 26.9531 8.15625C27.6302 9.6875 27.9688 11.375 27.9688 13.2188C27.9688 15.0729 27.6302 16.776 26.9531 18.3281C26.276 19.8698 25.3229 21.1979 24.0938 22.3125C22.875 23.4271 21.4062 24.2969 19.6875 24.9219C17.9688 25.5365 16.0729 25.8438 14 25.8438C11.9167 25.8438 10.0156 25.5365 8.29688 24.9219C6.58854 24.2969 5.11979 23.4271 3.89062 22.3125C2.67188 21.1979 1.72396 19.8698 1.04688 18.3281C0.369792 16.776 0.03125 15.0729 0.03125 13.2188ZM4.98438 13.2188C4.98438 14.4792 5.20833 15.6146 5.65625 16.625C6.11458 17.6354 6.74479 18.5 7.54688 19.2188C8.35938 19.9271 9.3125 20.474 10.4062 20.8594C11.5104 21.2448 12.7083 21.4375 14 21.4375C15.2917 21.4375 16.4844 21.2448 17.5781 20.8594C18.6823 20.474 19.6354 19.9271 20.4375 19.2188C21.2396 18.5 21.8698 17.6354 22.3281 16.625C22.7865 15.6146 23.0156 14.4792 23.0156 13.2188C23.0156 11.9583 22.7865 10.8281 22.3281 9.82812C21.8698 8.82812 21.2396 7.98438 20.4375 7.29688C19.6354 6.59896 18.6823 6.06771 17.5781 5.70312C16.4844 5.33854 15.2917 5.15625 14 5.15625C12.7083 5.15625 11.5104 5.33854 10.4062 5.70312C9.3125 6.06771 8.35938 6.59896 7.54688 7.29688C6.74479 7.98438 6.11458 8.82812 5.65625 9.82812C5.20833 10.8281 4.98438 11.9583 4.98438 13.2188ZM37.3906 33.0312H32.7656V7.0625H37.3906V8.79688C37.7969 8.51562 38.276 8.25 38.8281 8C39.3802 7.75 39.974 7.53125 40.6094 7.34375C41.2448 7.15625 41.901 7.01042 42.5781 6.90625C43.2552 6.79167 43.9323 6.73438 44.6094 6.73438C46.1719 6.73438 47.6042 6.96354 48.9062 7.42188C50.2188 7.88021 51.3438 8.52604 52.2812 9.35938C53.2188 10.1927 53.9479 11.1927 54.4688 12.3594C55 13.5156 55.2656 14.7969 55.2656 16.2031C55.2656 17.6719 54.9896 19 54.4375 20.1875C53.8854 21.3646 53.1198 22.375 52.1406 23.2188C51.1719 24.0521 50.0156 24.6979 48.6719 25.1562C47.3385 25.6042 45.8906 25.8281 44.3281 25.8281C43.6615 25.8281 43 25.7865 42.3438 25.7031C41.6979 25.6198 41.0729 25.5052 40.4688 25.3594C39.875 25.2135 39.3125 25.0417 38.7812 24.8438C38.2604 24.6354 37.7969 24.4115 37.3906 24.1719V33.0312ZM37.3906 19.7031C37.8594 20.0781 38.3542 20.3958 38.875 20.6562C39.3958 20.9167 39.9271 21.1302 40.4688 21.2969C41.0104 21.4635 41.5573 21.5885 42.1094 21.6719C42.6615 21.7448 43.1979 21.7812 43.7188 21.7812C44.7812 21.7812 45.724 21.6406 46.5469 21.3594C47.3802 21.0677 48.0781 20.6719 48.6406 20.1719C49.2135 19.6719 49.651 19.0833 49.9531 18.4062C50.2552 17.7292 50.4062 16.9948 50.4062 16.2031C50.4062 15.4635 50.2552 14.7656 49.9531 14.1094C49.6615 13.4531 49.2344 12.8802 48.6719 12.3906C48.1198 11.8906 47.4479 11.5 46.6562 11.2188C45.875 10.9271 44.9948 10.7812 44.0156 10.7812C43.3906 10.7812 42.7656 10.8438 42.1406 10.9688C41.5156 11.0833 40.9115 11.25 40.3281 11.4688C39.7552 11.6875 39.2135 11.9531 38.7031 12.2656C38.2031 12.5781 37.7656 12.9271 37.3906 13.3125V19.7031ZM58.7656 16.2188C58.7656 14.9688 59.0208 13.776 59.5312 12.6406C60.0417 11.4948 60.776 10.4844 61.7344 9.60938C62.6927 8.73438 63.8646 8.03646 65.25 7.51562C66.6458 6.99479 68.2292 6.73438 70 6.73438C71.7604 6.73438 73.3438 7 74.75 7.53125C76.1667 8.05208 77.3646 8.77083 78.3438 9.6875C79.3333 10.6042 80.0885 11.6823 80.6094 12.9219C81.1406 14.1615 81.4062 15.4896 81.4062 16.9062C81.4062 17.0833 81.401 17.276 81.3906 17.4844C81.3906 17.6823 81.3802 17.8646 81.3594 18.0312H63.9219C64.1198 18.5833 64.4375 19.0885 64.875 19.5469C65.3229 20.0052 65.8802 20.401 66.5469 20.7344C67.2135 21.0677 67.9844 21.3281 68.8594 21.5156C69.7344 21.6927 70.7031 21.7812 71.7656 21.7812C72.8281 21.7812 73.8854 21.6719 74.9375 21.4531C75.9896 21.224 76.9948 20.9375 77.9531 20.5938L79.5156 24.125C78.9115 24.4062 78.2969 24.6562 77.6719 24.875C77.0573 25.0833 76.4115 25.2604 75.7344 25.4062C75.0677 25.5417 74.3646 25.6458 73.625 25.7188C72.8958 25.7917 72.125 25.8281 71.3125 25.8281C69.2396 25.8281 67.4219 25.5781 65.8594 25.0781C64.2969 24.5781 62.9896 23.8958 61.9375 23.0312C60.8854 22.1667 60.0938 21.151 59.5625 19.9844C59.0312 18.8177 58.7656 17.5625 58.7656 16.2188ZM76.5 14.4219C76.3333 13.9115 76.0729 13.4375 75.7188 13C75.375 12.5521 74.9427 12.1667 74.4219 11.8438C73.901 11.5104 73.2969 11.25 72.6094 11.0625C71.9219 10.875 71.1667 10.7812 70.3438 10.7812C69.4688 10.7812 68.6719 10.8802 67.9531 11.0781C67.2344 11.276 66.6042 11.5417 66.0625 11.875C65.5208 12.2083 65.0677 12.5938 64.7031 13.0312C64.349 13.4688 64.0885 13.9323 63.9219 14.4219H76.5ZM86.3906 7.0625H91.0156V8.625C92.2448 7.92708 93.4167 7.4375 94.5312 7.15625C95.6562 6.875 96.7552 6.73438 97.8281 6.73438C99.2344 6.73438 100.536 6.94271 101.734 7.35938C102.932 7.76562 103.969 8.375 104.844 9.1875C105.719 10 106.401 11.0156 106.891 12.2344C107.391 13.4427 107.641 14.8438 107.641 16.4375V25.5H103.031V17.1875C103.031 16.1771 102.885 15.276 102.594 14.4844C102.312 13.6823 101.901 13.0104 101.359 12.4688C100.828 11.9167 100.177 11.5 99.4062 11.2188C98.6458 10.9271 97.7917 10.7812 96.8438 10.7812C96.3438 10.7812 95.8281 10.8333 95.2969 10.9375C94.776 11.0417 94.2604 11.1927 93.75 11.3906C93.25 11.5781 92.7656 11.8177 92.2969 12.1094C91.8281 12.3906 91.401 12.7135 91.0156 13.0781V25.5H86.3906V7.0625ZM113.875 1.07812H118.828L134.047 9.04688V1.07812H139V25.5H134.047V14.2969L118.828 6.375V25.5H113.875V1.07812ZM144.453 16.2188C144.453 14.9688 144.708 13.776 145.219 12.6406C145.729 11.4948 146.464 10.4844 147.422 9.60938C148.38 8.73438 149.552 8.03646 150.938 7.51562C152.333 6.99479 153.917 6.73438 155.688 6.73438C157.448 6.73438 159.031 7 160.438 7.53125C161.854 8.05208 163.052 8.77083 164.031 9.6875C165.021 10.6042 165.776 11.6823 166.297 12.9219C166.828 14.1615 167.094 15.4896 167.094 16.9062C167.094 17.0833 167.089 17.276 167.078 17.4844C167.078 17.6823 167.068 17.8646 167.047 18.0312H149.609C149.807 18.5833 150.125 19.0885 150.562 19.5469C151.01 20.0052 151.568 20.401 152.234 20.7344C152.901 21.0677 153.672 21.3281 154.547 21.5156C155.422 21.6927 156.391 21.7812 157.453 21.7812C158.516 21.7812 159.573 21.6719 160.625 21.4531C161.677 21.224 162.682 20.9375 163.641 20.5938L165.203 24.125C164.599 24.4062 163.984 24.6562 163.359 24.875C162.745 25.0833 162.099 25.2604 161.422 25.4062C160.755 25.5417 160.052 25.6458 159.312 25.7188C158.583 25.7917 157.812 25.8281 157 25.8281C154.927 25.8281 153.109 25.5781 151.547 25.0781C149.984 24.5781 148.677 23.8958 147.625 23.0312C146.573 22.1667 145.781 21.151 145.25 19.9844C144.719 18.8177 144.453 17.5625 144.453 16.2188ZM162.188 14.4219C162.021 13.9115 161.76 13.4375 161.406 13C161.062 12.5521 160.63 12.1667 160.109 11.8438C159.589 11.5104 158.984 11.25 158.297 11.0625C157.609 10.875 156.854 10.7812 156.031 10.7812C155.156 10.7812 154.359 10.8802 153.641 11.0781C152.922 11.276 152.292 11.5417 151.75 11.875C151.208 12.2083 150.755 12.5938 150.391 13.0312C150.036 13.4688 149.776 13.9323 149.609 14.4219H162.188ZM172.812 19.8438C174.062 20.5938 175.438 21.1458 176.938 21.5C178.438 21.8542 179.974 22.0312 181.547 22.0312C182.609 22.0312 183.495 21.9583 184.203 21.8125C184.911 21.6667 185.479 21.4792 185.906 21.25C186.333 21.0208 186.635 20.7604 186.812 20.4688C186.99 20.1771 187.078 19.8802 187.078 19.5781C187.078 19.1406 186.885 18.7656 186.5 18.4531C186.125 18.1406 185.5 17.9844 184.625 17.9844C184.219 17.9844 183.781 18.0104 183.312 18.0625C182.844 18.1146 182.349 18.1719 181.828 18.2344C181.318 18.2865 180.781 18.3385 180.219 18.3906C179.667 18.4427 179.104 18.4688 178.531 18.4688C177.281 18.4688 176.214 18.3333 175.328 18.0625C174.453 17.7917 173.74 17.4219 173.188 16.9531C172.635 16.4844 172.234 15.9323 171.984 15.2969C171.734 14.651 171.609 13.9583 171.609 13.2188C171.609 12.2812 171.828 11.4167 172.266 10.625C172.703 9.83333 173.328 9.15104 174.141 8.57812C174.953 7.99479 175.932 7.54167 177.078 7.21875C178.234 6.89583 179.521 6.73438 180.938 6.73438C181.677 6.73438 182.448 6.78125 183.25 6.875C184.062 6.95833 184.859 7.07292 185.641 7.21875C186.422 7.36458 187.172 7.53646 187.891 7.73438C188.609 7.92188 189.245 8.125 189.797 8.34375L188.344 11.9375C187.167 11.5 185.99 11.1562 184.812 10.9062C183.646 10.6458 182.443 10.5156 181.203 10.5156C180.339 10.5156 179.604 10.5833 179 10.7188C178.406 10.8438 177.922 11.0156 177.547 11.2344C177.172 11.4427 176.896 11.6875 176.719 11.9688C176.552 12.2396 176.469 12.526 176.469 12.8281C176.469 13.0469 176.51 13.2448 176.594 13.4219C176.688 13.599 176.833 13.7552 177.031 13.8906C177.24 14.0156 177.505 14.1146 177.828 14.1875C178.161 14.25 178.568 14.2812 179.047 14.2812C179.484 14.2812 179.948 14.2552 180.438 14.2031C180.927 14.151 181.438 14.099 181.969 14.0469C182.5 13.9844 183.047 13.9271 183.609 13.875C184.182 13.8229 184.766 13.7969 185.359 13.7969C186.464 13.7969 187.427 13.9271 188.25 14.1875C189.083 14.4479 189.771 14.8125 190.312 15.2812C190.854 15.75 191.26 16.3021 191.531 16.9375C191.802 17.5729 191.938 18.2656 191.938 19.0156C191.938 19.9844 191.714 20.8854 191.266 21.7188C190.818 22.5521 190.151 23.276 189.266 23.8906C188.38 24.4948 187.276 24.9688 185.953 25.3125C184.641 25.6562 183.12 25.8281 181.391 25.8281C180.328 25.8281 179.302 25.7604 178.312 25.625C177.323 25.5 176.38 25.3281 175.484 25.1094C174.589 24.8802 173.745 24.6146 172.953 24.3125C172.172 24.0104 171.458 23.6875 170.812 23.3438L172.812 19.8438ZM198.891 10.5312H194.438V7.0625H198.891V1.32812H203.516V7.0625H207.969V10.5312H203.516V25.5H198.891V10.5312Z" fill="#0C9EDD"/>
</svg>
