<svg width="20" height="20" viewBox="0 0 20 20" fill="none" xmlns="http://www.w3.org/2000/svg">
<path d="M4.16699 3.33337H15.8337C17.2143 3.33337 18.3335 4.45254 18.3337 5.83315C18.2306 5.83312 18.1257 5.85235 18.0242 5.89298L10.6193 8.85492C10.222 9.01386 9.77869 9.01386 9.38134 8.85492L1.97648 5.89298C1.87491 5.85235 1.77009 5.83312 1.66699 5.83315C1.66711 4.45254 2.78635 3.33337 4.16699 3.33337Z" fill="#02202C"/>
<path d="M1.66699 7.56423V14.1667C1.66699 15.5474 2.78628 16.6667 4.16699 16.6667H15.8337C17.2144 16.6667 18.3337 15.5474 18.3337 14.1667V7.56423L11.2383 10.4024C10.4436 10.7203 9.55706 10.7203 8.76236 10.4024L1.66699 7.56423Z" fill="#02202C"/>
</svg>
