<svg width="30" height="25" viewBox="0 0 30 25" fill="none" xmlns="http://www.w3.org/2000/svg">
<path d="M5.78809 4.55553C5.05451 4.49135 4.4078 5.034 4.34363 5.76758C4.27945 6.50116 4.8221 7.14787 5.55568 7.21205L8.2122 7.44446C8.94577 7.50864 9.59248 6.96599 9.65666 6.23241C9.72084 5.49883 9.17819 4.85212 8.44461 4.78794L5.78809 4.55553Z" fill="#04354A"/>
<path d="M20.3436 7.10091C20.4078 6.36734 21.0545 5.82468 21.7881 5.88886L24.4446 6.12128C25.1782 6.18546 25.7208 6.83217 25.6567 7.56575C25.5925 8.29932 24.9458 8.84198 24.2122 8.7778L21.5557 8.54538C20.8221 8.4812 20.2794 7.83449 20.3436 7.10091Z" fill="#04354A"/>
<path d="M5.78809 16.0051C5.05451 15.9409 4.4078 16.4835 4.34363 17.2171C4.27945 17.9507 4.8221 18.5974 5.55568 18.6616L8.2122 18.894C8.94577 18.9582 9.59248 18.4155 9.65666 17.682C9.72084 16.9484 9.17819 16.3017 8.44461 16.2375L5.78809 16.0051Z" fill="#04354A"/>
<path d="M20.3436 19.1009C20.4078 18.3673 21.0545 17.8247 21.7881 17.8889L24.4446 18.1213C25.1782 18.1855 25.7208 18.8322 25.6567 19.5657C25.5925 20.2993 24.9458 20.842 24.2122 20.7778L21.5557 20.5454C20.8221 20.4812 20.2794 19.8345 20.3436 19.1009Z" fill="#04354A"/>
<path fill-rule="evenodd" clip-rule="evenodd" d="M15 8C17.2091 8 19 9.79086 19 12C19 14.2091 17.2091 16 15 16C12.7909 16 11 14.2091 11 12C11 9.79086 12.7909 8 15 8ZM16.3333 12C16.3333 11.2636 15.7364 10.6667 15 10.6667C14.2636 10.6667 13.6667 11.2636 13.6667 12C13.6667 12.7364 14.2636 13.3333 15 13.3333C15.7364 13.3333 16.3333 12.7364 16.3333 12Z" fill="#04354A"/>
<path fill-rule="evenodd" clip-rule="evenodd" d="M5.99245 0.322126C2.90814 0.0573899 0.333344 2.50118 0.333344 5.55816V16.2129C0.333344 19.0464 2.53997 21.374 5.331 21.6089C6.47502 21.7051 7.8784 21.8311 9.53658 21.9936C9.83383 22.0228 10.4947 22.1576 11.4503 22.3786C12.0785 22.5239 12.7857 22.6946 13.5286 22.8739C13.8788 22.9584 14.2382 23.0452 14.5998 23.1318C15.7188 23.3998 16.8629 23.6675 17.8476 23.869C18.7904 24.0619 19.7142 24.2223 20.3277 24.2249C21.8526 24.2313 23.3439 24.2026 24.6202 24.1636C27.475 24.0765 29.6667 21.718 29.6667 18.9082V8.25708C29.6667 5.17385 27.0753 2.76384 24.0448 2.84574C22.908 2.87646 21.6335 2.89706 20.339 2.89159C20.0313 2.89028 19.3616 2.79023 18.3822 2.58982C17.4446 2.39797 16.3379 2.13938 15.221 1.87183C14.8711 1.78802 14.5194 1.70312 14.1723 1.61936L14.171 1.61903C13.4207 1.43791 12.6919 1.26201 12.0511 1.11381C11.1442 0.904087 10.3012 0.722483 9.79677 0.673029C8.33153 0.529378 7.0624 0.413964 5.99245 0.322126ZM3.00001 5.55816C3.00001 4.02512 4.2755 2.85123 5.7644 2.97902C6.8237 3.06995 8.08212 3.18438 9.53658 3.32697C9.83383 3.35611 10.4947 3.49095 11.4503 3.71191C12.0786 3.85721 12.7859 4.02795 13.529 4.20732C13.8795 4.29192 14.2379 4.37845 14.5998 4.46513C15.7188 4.73318 16.8629 5.00086 17.8476 5.20235C18.7904 5.39527 19.7142 5.55563 20.3277 5.55823C21.6565 5.56385 22.9596 5.54271 24.1169 5.51143C25.6988 5.46868 27 6.72627 27 8.25708V18.9082C27 20.3235 25.9071 21.4564 24.5389 21.4982C23.2842 21.5365 21.8249 21.5645 20.339 21.5583C20.0313 21.557 19.3616 21.4569 18.3822 21.2565C17.4446 21.0646 16.3379 20.806 15.221 20.5385C14.8707 20.4546 14.5186 20.3696 14.1713 20.2858C13.4208 20.1046 12.692 19.9287 12.0511 19.7805C11.1442 19.5708 10.3012 19.3891 9.79677 19.3397C8.1263 19.1759 6.71072 19.0489 5.55458 18.9516C4.1121 18.8302 3.00001 17.6278 3.00001 16.2129V5.55816Z" fill="#04354A"/>
</svg>
