<svg width="40" height="40" viewBox="0 0 40 40" fill="none" xmlns="http://www.w3.org/2000/svg">
<rect width="40" height="40" rx="20" fill="#F0F2F5"/>
<path fill-rule="evenodd" clip-rule="evenodd" d="M20.8337 12.5001C20.8337 12.0398 20.4606 11.6667 20.0004 11.6667C19.5401 11.6667 19.167 12.0398 19.167 12.5001V12.9758C16.3403 13.38 14.167 15.8103 14.167 18.7492L14.167 22.0828C14.167 22.0828 14.167 22.0827 14.167 22.0828C14.167 22.0844 14.1664 22.0956 14.1628 22.1175C14.1584 22.1437 14.1507 22.1794 14.138 22.2253C14.1123 22.3184 14.0712 22.4343 14.0139 22.5713C13.899 22.846 13.7371 23.1623 13.5579 23.4814C13.2212 24.0813 13.0514 24.7963 13.1788 25.4761C13.3132 26.1931 13.7747 26.8183 14.5629 27.1184C15.267 27.3865 16.2042 27.6317 17.4419 27.7776C17.4714 27.8031 17.5062 27.8323 17.5462 27.8643C17.6714 27.9645 17.8504 28.0944 18.0765 28.2236C18.5253 28.4801 19.1889 28.7501 20.0004 28.7501C20.8119 28.7501 21.4754 28.4801 21.9242 28.2236C22.1504 28.0944 22.3293 27.9645 22.4545 27.8643C22.4945 27.8323 22.5294 27.8031 22.5588 27.7776C23.7965 27.6317 24.7337 27.3865 25.4378 27.1184C26.226 26.8183 26.6875 26.1931 26.8219 25.4761C26.9493 24.7963 26.7796 24.0813 26.4428 23.4814C26.2637 23.1623 26.1017 22.846 25.9868 22.5713C25.9295 22.4343 25.8885 22.3184 25.8627 22.2253C25.85 22.1794 25.8423 22.1437 25.838 22.1175C25.8344 22.0956 25.8338 22.0846 25.8337 22.083C25.8337 22.0829 25.8337 22.083 25.8337 22.083L25.8337 22.076V18.7496C25.8337 15.8107 23.6605 13.3801 20.8337 12.9758V12.5001ZM15.8337 18.7492C15.8337 16.4482 17.699 14.5834 20.0004 14.5834C22.3017 14.5834 24.167 16.4485 24.167 18.7496V22.0834C24.167 22.4692 24.3116 22.8853 24.4492 23.2143C24.5987 23.5718 24.7946 23.9501 24.9895 24.2972C25.1789 24.6348 25.2241 24.9537 25.1838 25.169C25.1504 25.3472 25.0613 25.4784 24.8448 25.5609C23.949 25.9019 22.437 26.2501 20.0004 26.2501C17.5638 26.2501 16.0517 25.9019 15.156 25.5609C14.9394 25.4784 14.8504 25.3472 14.817 25.169C14.7766 24.9537 14.8218 24.6348 15.0113 24.2972C15.2062 23.9501 15.4021 23.5718 15.5516 23.2143C15.6892 22.8853 15.8337 22.4692 15.8337 22.0834V18.7492Z" fill="#344054"/>
</svg>
