<svg width="19" height="18" viewBox="0 0 19 18" fill="none" xmlns="http://www.w3.org/2000/svg">
<path d="M5.25008 2.33341C5.71032 2.33342 6.08342 1.96032 6.08342 1.50008C6.08342 1.03984 5.71032 0.666748 5.25008 0.666748H4.00008C2.15913 0.666748 0.666748 2.15913 0.666748 4.00008V14.0001C0.666748 15.841 2.15913 17.3334 4.00008 17.3334H5.25008C5.71032 17.3334 6.08341 16.9603 6.08341 16.5001C6.08341 16.0398 5.71032 15.6667 5.25008 15.6667H4.00008C3.07961 15.6667 2.33341 14.9206 2.33341 14.0001L2.33342 4.00008C2.33342 3.07961 3.07961 2.33341 4.00008 2.33341H5.25008Z" fill="black"/>
<path d="M17.9227 9.58934C18.2481 9.2639 18.2481 8.73626 17.9227 8.41083L14.5893 5.07749C14.2639 4.75206 13.7363 4.75206 13.4108 5.07749C13.0854 5.40293 13.0854 5.93057 13.4108 6.256L15.3216 8.16675L5.66675 8.16675C5.20651 8.16675 4.83341 8.53984 4.83341 9.00008C4.83341 9.46032 5.20651 9.83341 5.66675 9.83341L15.3216 9.83342L13.4108 11.7442C13.0854 12.0696 13.0854 12.5972 13.4108 12.9227C13.7363 13.2481 14.2639 13.2481 14.5893 12.9227L17.9227 9.58934Z" fill="black"/>
</svg>
