<svg width="30" height="24" viewBox="0 0 30 24" fill="none" xmlns="http://www.w3.org/2000/svg">
<path fill-rule="evenodd" clip-rule="evenodd" d="M8.33334 24C10.075 24 11.5566 22.8869 12.1057 21.3333H20.5609C21.1101 22.8869 22.5917 24 24.3333 24C26.075 24 27.5566 22.8869 28.1057 21.3333H28.3333C29.0697 21.3333 29.6667 20.7364 29.6667 20V15.5155C29.6667 14.7693 29.5101 14.0314 29.207 13.3495L27.9408 10.5006C27.0848 8.57458 25.1749 7.33333 23.0672 7.33333H20.3333V5.33333C20.3333 2.38781 17.9455 0 15 0H5.66668C2.72116 0 0.333344 2.38782 0.333344 5.33333V18.6667C0.333344 20.1394 1.52725 21.3333 3.00001 21.3333H4.56095C5.11007 22.8869 6.59172 24 8.33334 24ZM3.00001 5.33333C3.00001 3.86057 4.19392 2.66667 5.66668 2.66667H15C16.4728 2.66667 17.6667 3.86057 17.6667 5.33333V18.6667H12.1057C11.5566 17.1131 10.075 16 8.33334 16C6.59172 16 5.11007 17.1131 4.56095 18.6667H3.00001V5.33333ZM26.7702 14.4325C26.9217 14.7734 27 15.1424 27 15.5155V17.0185C26.2923 16.3851 25.3578 16 24.3333 16C22.5917 16 21.1101 17.1131 20.5609 18.6667H20.3333V10H23.0672C24.121 10 25.076 10.6206 25.504 11.5836L26.7702 14.4325ZM7.00001 20C7.00001 19.2636 7.59696 18.6667 8.33334 18.6667C9.06972 18.6667 9.66668 19.2636 9.66668 20C9.66668 20.7364 9.06972 21.3333 8.33334 21.3333C7.59696 21.3333 7.00001 20.7364 7.00001 20ZM23 20C23 19.2636 23.597 18.6667 24.3333 18.6667C25.0697 18.6667 25.6667 19.2636 25.6667 20C25.6667 20.7364 25.0697 21.3333 24.3333 21.3333C23.597 21.3333 23 20.7364 23 20Z" fill="#04354A"/>
</svg>
