<svg width="18" height="20" viewBox="0 0 18 20" fill="none" xmlns="http://www.w3.org/2000/svg">
<path fill-rule="evenodd" clip-rule="evenodd" d="M8.99948 5.00007C6.23806 5.00007 3.99948 7.23864 3.99948 10.0001C3.99948 12.7615 6.23806 15.0001 8.99948 15.0001C11.7609 15.0001 13.9995 12.7615 13.9995 10.0001C13.9995 7.23864 11.7609 5.00007 8.99948 5.00007ZM5.66615 10.0001C5.66615 8.15912 7.15854 6.66673 8.99948 6.66673C10.8404 6.66673 12.3328 8.15912 12.3328 10.0001C12.3328 11.841 10.8404 13.3334 8.99948 13.3334C7.15854 13.3334 5.66615 11.841 5.66615 10.0001Z" fill="#667185"/>
<path fill-rule="evenodd" clip-rule="evenodd" d="M11.0843 1.69082C9.92189 0.566277 8.07708 0.566277 6.91464 1.69082C6.61939 1.97644 6.20885 2.10984 5.8021 2.0523C4.20069 1.82579 2.7082 2.91015 2.42876 4.50318C2.35778 4.9078 2.10405 5.25703 1.74117 5.44956C0.312458 6.2076 -0.257621 7.96213 0.452667 9.41517C0.633077 9.78423 0.633077 10.2159 0.452667 10.585C-0.257622 12.038 0.312458 13.7925 1.74117 14.5506C2.10405 14.7431 2.35778 15.0923 2.42876 15.497C2.7082 17.09 4.20069 18.1743 5.8021 17.9478C6.20885 17.8903 6.61939 18.0237 6.91464 18.3093C8.07708 19.4339 9.92189 19.4339 11.0843 18.3093C11.3796 18.0237 11.7901 17.8903 12.1969 17.9478C13.7983 18.1743 15.2908 17.09 15.5702 15.497C15.6412 15.0923 15.8949 14.7431 16.2578 14.5506C17.6865 13.7925 18.2566 12.038 17.5463 10.585C17.3659 10.2159 17.3659 9.78423 17.5463 9.41517C18.2566 7.96213 17.6865 6.2076 16.2578 5.44956C15.8949 5.25703 15.6412 4.9078 15.5702 4.50318C15.2908 2.91015 13.7983 1.82579 12.1969 2.0523C11.7901 2.10984 11.3796 1.97644 11.0843 1.69082ZM8.07347 2.88869C8.58978 2.38921 9.40919 2.38921 9.9255 2.88869C10.5902 3.53175 11.5145 3.83207 12.4303 3.70254C13.1416 3.60193 13.8045 4.08357 13.9286 4.79114C14.0884 5.70211 14.6596 6.48836 15.4766 6.92184C16.1112 7.25853 16.3644 8.03783 16.049 8.68322C15.6428 9.51414 15.6428 10.486 16.049 11.3169C16.3644 11.9623 16.1112 12.7416 15.4766 13.0783C14.6596 13.5118 14.0884 14.298 13.9286 15.209C13.8045 15.9166 13.1416 16.3982 12.4303 16.2976C11.5145 16.1681 10.5902 16.4684 9.9255 17.1114C9.40919 17.6109 8.58978 17.6109 8.07347 17.1114C7.40874 16.4684 6.48445 16.1681 5.56869 16.2976C4.85739 16.3982 4.19448 15.9166 4.07036 15.209C3.91056 14.298 3.33932 13.5118 2.52232 13.0783C1.88773 12.7416 1.63452 11.9623 1.95001 11.3169C2.35618 10.486 2.35618 9.51414 1.95001 8.68322C1.63452 8.03783 1.88773 7.25853 2.52232 6.92184C3.33932 6.48836 3.91056 5.70211 4.07036 4.79114C4.19448 4.08357 4.85739 3.60193 5.56869 3.70254C6.48445 3.83207 7.40874 3.53175 8.07347 2.88869Z" fill="#667185"/>
</svg>
